# This file uses centimeters as units for non-parametric coordinates.

mtllib model1.mtl
g default
v -3.879502 -2.000000 1.879502
v -3.879502 -1.879502 2.000000
v -4.000000 -1.879502 1.879502
v 4.000000 -1.879502 1.879502
v 3.879502 -1.879502 2.000000
v 3.879502 -2.000000 1.879502
v -3.875012 2.000000 1.750025
v -4.000000 1.881928 1.881928
v -3.884354 1.884354 2.000000
v -3.750025 2.000000 1.875013
v 3.750025 2.000000 1.875013
v 3.881928 1.881928 2.000000
v 4.000000 1.884354 1.884354
v 3.875012 2.000000 1.750025
v -3.750025 2.000000 -1.875013
v -3.881928 1.881928 -2.000000
v -4.000000 1.884354 -1.884354
v -3.875012 2.000000 -1.750025
v 3.875012 2.000000 -1.750025
v 4.000000 1.881928 -1.881928
v 3.884354 1.884354 -2.000000
v 3.750025 2.000000 -1.875013
v -4.000000 -1.879502 -1.879502
v -3.879502 -1.879502 -2.000000
v -3.879502 -2.000000 -1.879502
v 3.879502 -2.000000 -1.879502
v 3.879502 -1.879502 -2.000000
v 4.000000 -1.879502 -1.879502
v -3.500000 1.881931 1.381931
v -3.622833 2.000000 1.500000
v -3.500000 2.000000 1.622833
v -3.381931 1.881931 1.500000
v 3.381931 1.881931 1.500000
v 3.500000 2.000000 1.622833
v 3.622833 2.000000 1.500000
v 3.500000 1.881931 1.381931
v 3.500000 1.881931 -1.381931
v 3.622833 2.000000 -1.500000
v 3.500000 2.000000 -1.622833
v 3.381931 1.881931 -1.500000
v -3.381931 1.881931 -1.500000
v -3.500000 2.000000 -1.622833
v -3.622833 2.000000 -1.500000
v -3.500000 1.881931 -1.381931
v -3.500000 0.366757 1.379502
v -3.379502 0.366757 1.500000
v -3.379502 0.246259 1.379502
v 3.379502 0.246259 1.379502
v 3.379502 0.366757 1.500000
v 3.500000 0.366757 1.379502
v 3.379502 0.246259 -1.379502
v 3.500000 0.366757 -1.379502
v 3.379502 0.366757 -1.500000
v -3.379502 0.246259 -1.379502
v -3.379502 0.366757 -1.500000
v -3.500000 0.366757 -1.379502
vt 0.378766 0.992469
vt 0.375000 0.992469
vt 0.375000 0.757531
vt 0.378766 0.000000
vt 0.378766 0.007531
vt 0.625000 0.992469
vt 0.621234 0.992469
vt 0.625000 0.757531
vt 0.632531 0.007531
vt 0.359377 0.250000
vt 0.140623 0.250000
vt 0.378614 0.242772
vt 0.621310 0.242620
vt 0.640623 0.250000
vt 0.632228 0.242772
vt 0.867621 0.242620
vt 0.859377 0.250000
vt 0.375000 0.492188
vt 0.379464 0.500000
vt 0.378690 0.507380
vt 0.375000 0.742469
vt 0.621094 0.500000
vt 0.625000 0.507380
vt 0.625000 0.742469
vt 0.378766 0.742469
vt 0.621234 0.742469
vt 0.621234 0.757531
vt 0.375000 0.259839
vt 0.375000 0.492323
vt 0.378839 0.250000
vt 0.620613 0.250000
vt 0.625000 0.257677
vt 0.625000 0.489764
vt 0.621161 0.500000
vt 0.379387 0.500000
vt 0.375000 0.490161
vt 0.375000 0.489958
vt 0.379304 0.250000
vt 0.620696 0.250000
vt 0.625000 0.260042
vt 0.625000 0.489958
vt 0.620696 0.500000
vt 0.379303 0.500000
vt 0.379304 0.489958
vt 0.621234 0.007531
vt 0.379304 0.260041
vt 0.620696 0.260041
vt 0.620696 0.489958
vt 0.621386 0.507228
vt 0.378766 0.757531
vt 0.867469 0.007531
vt 0.132531 0.007531
vt 0.367469 0.007531
vt 0.367620 0.242620
vt 0.132228 0.242772
vt 0.378906 0.250000
vt 0.620536 0.250000
vt 0.625000 0.257812
vt 0.625000 0.489584
vt 0.375000 0.260236
vt 0.379217 0.250000
vt 0.620783 0.250000
vt 0.625000 0.259839
vt 0.625000 0.490161
vt 0.620783 0.500000
vt 0.379217 0.500000
vt 0.375000 0.260042
vt 0.621234 0.000000
vt 0.375000 0.260416
vt 0.621094 0.250000
vt 0.375000 0.507228
vt 0.378906 0.500000
vn -0.707107 -0.707107 0.000000
vn -0.707107 -0.707107 0.000000
vn -0.707107 -0.707107 0.000000
vn -0.707107 -0.707107 0.000000
vn 0.000000 -0.707107 0.707107
vn 0.000000 -0.707107 0.707107
vn 0.000000 -0.707107 0.707107
vn 0.000000 -0.707107 0.707107
vn -0.707107 -0.000456 0.707106
vn -0.707266 -0.000466 0.706948
vn -0.714229 -0.000910 0.699911
vn -0.714398 -0.000921 0.699739
vn 0.707107 -0.707107 0.000000
vn 0.707107 -0.707107 0.000000
vn 0.707107 -0.707107 0.000000
vn 0.707107 -0.707107 0.000000
vn 0.707107 -0.000456 0.707107
vn 0.706950 -0.000466 0.707263
vn 0.699911 -0.000910 0.714229
vn 0.699740 -0.000921 0.714397
vn 0.000000 1.000000 -0.000000
vn 0.000000 1.000000 -0.000000
vn 0.000000 1.000000 0.000000
vn 0.000000 1.000000 0.000000
vn -0.680570 0.732602 0.010896
vn -0.673767 0.738884 -0.009394
vn -0.654848 0.753979 0.051864
vn -0.648341 0.759533 -0.052581
vn -0.011522 0.739873 0.672648
vn -0.009941 0.739012 0.673619
vn 0.010999 0.733026 0.680112
vn 0.009164 0.731710 0.681554
vn 0.000000 1.000000 -0.000000
vn 0.000000 1.000000 0.000000
vn 0.000000 1.000000 0.000000
vn 0.000000 1.000000 0.000000
vn 0.648340 0.759533 0.052581
vn 0.654848 0.753979 -0.051864
vn 0.673766 0.738885 0.009394
vn 0.680570 0.732602 -0.010896
vn 0.000000 1.000000 0.000000
vn 0.000000 1.000000 0.000000
vn 0.000000 1.000000 0.000000
vn 0.000000 1.000000 0.000000
vn -0.009164 0.731710 -0.681554
vn -0.010999 0.733026 -0.680112
vn 0.009941 0.739012 -0.673619
vn 0.011522 0.739873 -0.672648
vn -0.699739 -0.000921 -0.714398
vn -0.699911 -0.000910 -0.714230
vn -0.706950 -0.000466 -0.707263
vn -0.707107 -0.000456 -0.707107
vn 0.000000 1.000000 0.000000
vn 0.000000 1.000000 0.000000
vn 0.000000 1.000000 0.000000
vn 0.000000 1.000000 0.000000
vn 0.714398 -0.000921 -0.699739
vn 0.714229 -0.000910 -0.699911
vn 0.707266 -0.000466 -0.706948
vn 0.707107 -0.000456 -0.707106
vn 0.000000 -0.707107 -0.707107
vn 0.000000 -0.707107 -0.707107
vn 0.000000 -0.707107 -0.707107
vn 0.000000 -0.707107 -0.707107
vn 0.707107 0.001133 -0.707106
vn 0.707107 0.001133 -0.707106
vn 0.707106 0.001134 -0.707106
vn 0.707106 0.001134 -0.707106
vn 0.662083 0.747155 -0.058359
vn 0.686457 0.727056 -0.012904
vn 0.659815 0.748833 0.062393
vn 0.685917 0.727546 0.013951
vn 0.012871 0.727042 -0.686473
vn 0.010807 0.726077 -0.687529
vn -0.012459 0.726849 -0.686684
vn -0.010465 0.725916 -0.687703
vn -0.707107 0.001133 -0.707106
vn -0.707107 0.001133 -0.707106
vn -0.707106 0.001134 -0.707106
vn -0.707106 0.001134 -0.707106
vn -0.685917 0.727546 -0.013951
vn -0.659815 0.748833 -0.062393
vn -0.686457 0.727056 0.012904
vn -0.662083 0.747155 0.058359
vn -0.707107 0.001133 0.707106
vn -0.707107 0.001133 0.707106
vn -0.707106 0.001134 0.707106
vn -0.707106 0.001134 0.707106
vn -0.012871 0.727042 0.686473
vn -0.010807 0.726077 0.687529
vn 0.012459 0.726849 0.686684
vn 0.010465 0.725916 0.687703
vn 0.707107 0.001133 0.707106
vn 0.707107 0.001133 0.707106
vn 0.707106 0.001134 0.707106
vn 0.707106 0.001134 0.707106
vn 0.707105 0.707109 0.000000
vn 0.707105 0.707109 0.000000
vn 0.707107 0.707107 0.000000
vn 0.707107 0.707107 0.000000
vn 0.000000 0.707107 -0.707107
vn 0.000000 0.707107 -0.707107
vn 0.000000 0.707107 -0.707106
vn 0.000000 0.707107 -0.707106
vn -0.707107 0.707107 0.000000
vn -0.707107 0.707107 0.000000
vn -0.707105 0.707109 0.000000
vn -0.707105 0.707109 0.000000
vn 0.000000 0.707107 0.707107
vn 0.000000 0.707107 0.707107
vn 0.000000 0.707107 0.707106
vn 0.000000 0.707107 0.707106
vn 0.000000 0.000000 1.000000
vn -0.000000 0.000000 1.000000
vn -0.000000 0.000000 1.000000
vn -0.000000 0.000000 1.000000
vn 0.000000 1.000000 0.000000
vn 0.000000 1.000000 0.000000
vn 0.000000 1.000000 0.000000
vn 0.000000 1.000000 0.000000
vn 0.000000 0.000000 -1.000000
vn 0.000000 0.000000 -1.000000
vn 0.000000 0.000000 -1.000000
vn 0.000000 0.000000 -1.000000
vn 0.000000 -1.000000 0.000000
vn 0.000000 -1.000000 0.000000
vn 0.000000 -1.000000 0.000000
vn 0.000000 -1.000000 0.000000
vn 1.000000 0.000000 0.000000
vn 1.000000 0.000000 0.000000
vn 1.000000 0.000000 0.000000
vn 1.000000 0.000000 0.000000
vn -1.000000 0.000000 0.000000
vn -1.000000 0.000000 0.000000
vn -1.000000 0.000000 0.000000
vn -1.000000 0.000000 0.000000
vn 0.000000 0.000000 -1.000000
vn 0.000000 0.000000 -1.000000
vn 0.000000 0.000000 -1.000000
vn 0.000000 0.000000 -1.000000
vn -1.000000 0.000000 0.000000
vn -1.000000 -0.000000 0.000000
vn -1.000000 -0.000000 0.000000
vn -1.000000 -0.000000 0.000000
vn 0.000000 0.000000 1.000000
vn 0.000000 0.000000 1.000000
vn 0.000000 0.000000 1.000000
vn 0.000000 0.000000 1.000000
vn 1.000000 0.000000 0.000000
vn 1.000000 -0.000000 0.000000
vn 1.000000 -0.000000 0.000000
vn 1.000000 -0.000000 0.000000
vn -0.577350 -0.577350 0.577350
vn -0.577350 -0.577350 0.577350
vn -0.577350 -0.577350 0.577350
vn 0.577350 -0.577350 0.577350
vn 0.577350 -0.577350 0.577350
vn 0.577350 -0.577350 0.577350
vn -0.577350 -0.577350 -0.577350
vn -0.577350 -0.577350 -0.577350
vn -0.577350 -0.577350 -0.577350
vn 0.577350 -0.577350 -0.577350
vn 0.577350 -0.577350 -0.577350
vn 0.577350 -0.577350 -0.577350
vn 0.577350 0.577350 -0.577350
vn 0.577350 0.577350 -0.577350
vn 0.577350 0.577350 -0.577350
vn -0.577350 0.577350 -0.577350
vn -0.577350 0.577350 -0.577350
vn -0.577350 0.577350 -0.577350
vn -0.577350 0.577350 0.577350
vn -0.577350 0.577350 0.577350
vn -0.577350 0.577350 0.577350
vn 0.577350 0.577350 0.577350
vn 0.577350 0.577350 0.577350
vn 0.577350 0.577350 0.577350
s 1
g pCube1
usemtl initialShadingGroup
f 1/1/1 3/2/2 25/50/3
f 25/50/3 3/2/2 23/3/4
s 2
f 2/5/5 1/4/6 5/45/7
f 5/45/7 1/4/6 6/68/8
s 3
f 3/53/9 2/5/10 8/54/11
f 8/54/11 2/5/10 9/12/12
s 4
f 4/6/13 6/7/14 28/8/15
f 28/8/15 6/7/14 26/27/16
s 5
f 5/45/17 4/9/18 12/13/19
f 12/13/19 4/9/18 13/15/20
s 6
f 10/56/21 31/30/22 7/69/23
f 7/69/23 31/30/22 30/60/24
s 7
f 7/10/25 18/11/26 8/54/27
f 8/54/27 18/11/26 17/55/28
f 10/56/29 9/12/30 11/57/31
f 11/57/31 9/12/30 12/13/32
s 6
f 11/57/33 14/58/34 34/31/35
f 34/31/35 14/58/34 35/32/36
s 7
f 13/15/37 20/16/38 14/14/39
f 14/14/39 20/16/38 19/17/40
s 6
f 15/19/41 18/18/42 42/35/43
f 42/35/43 18/18/42 43/29/44
s 7
f 16/20/45 15/19/46 21/49/47
f 21/49/47 15/19/46 22/22/48
s 13
f 17/71/49 16/20/50 23/21/51
f 23/21/51 16/20/50 24/25/52
s 6
f 22/22/53 39/34/54 19/59/55
f 19/59/55 39/34/54 38/33/56
s 15
f 21/49/57 20/23/58 27/26/59
f 27/26/59 20/23/58 28/24/60
s 16
f 25/50/61 24/25/62 26/27/63
f 26/27/63 24/25/62 27/26/64
s 17
f 29/28/65 32/61/66 45/67/67
f 45/67/67 32/61/66 46/38/68
s 18
f 30/60/69 29/28/70 43/29/71
f 43/29/71 29/28/70 44/36/72
f 32/61/73 31/30/74 33/62/75
f 33/62/75 31/30/74 34/31/76
s 20
f 33/62/77 36/63/78 49/39/79
f 49/39/79 36/63/78 50/40/80
s 18
f 36/63/81 35/32/82 37/64/83
f 37/64/83 35/32/82 38/33/84
s 22
f 37/64/85 40/65/86 52/41/87
f 52/41/87 40/65/86 53/42/88
s 18
f 40/65/89 39/34/90 41/66/91
f 41/66/91 39/34/90 42/35/92
s 24
f 41/66/93 44/36/94 55/43/95
f 55/43/95 44/36/94 56/37/96
s 25
f 45/67/97 47/46/98 56/37/99
f 56/37/99 47/46/98 54/44/100
s 26
f 47/46/101 46/38/102 48/47/103
f 48/47/103 46/38/102 49/39/104
s 27
f 48/47/105 50/40/106 51/48/107
f 51/48/107 50/40/106 52/41/108
s 28
f 51/48/109 53/42/110 54/44/111
f 54/44/111 53/42/110 55/43/112
s 29
f 2/5/113 5/45/114 9/12/115
f 9/12/115 5/45/114 12/13/116
s 30
f 47/46/117 48/47/118 54/44/119
f 54/44/119 48/47/118 51/48/120
s 31
f 16/20/121 21/49/122 24/25/123
f 24/25/123 21/49/122 27/26/124
s 32
f 25/50/125 26/27/126 1/1/127
f 1/1/127 26/27/126 6/7/128
s 33
f 28/51/129 20/16/130 4/9/131
f 4/9/131 20/16/130 13/15/132
s 34
f 3/53/133 8/54/134 23/52/135
f 23/52/135 8/54/134 17/55/136
s 6
f 10/56/21 11/57/33 31/30/22
f 31/30/22 11/57/33 34/31/35
f 14/58/34 19/59/55 35/32/36
f 35/32/36 19/59/55 38/33/56
f 22/22/53 15/19/41 39/34/54
f 39/34/54 15/19/41 42/35/43
f 18/18/42 7/69/23 43/29/44
f 43/29/44 7/69/23 30/60/24
s 35
f 32/61/137 33/62/138 46/38/139
f 46/38/139 33/62/138 49/39/140
s 36
f 36/63/141 37/64/142 50/40/143
f 50/40/143 37/64/142 52/41/144
s 37
f 40/65/145 41/66/146 53/42/147
f 53/42/147 41/66/146 55/43/148
s 38
f 44/36/149 29/28/150 56/37/151
f 56/37/151 29/28/150 45/67/152
s off
f 1/4/153 2/5/154 3/53/155
f 4/9/156 5/45/157 6/68/158
s 7
f 7/69/25 8/54/27 10/56/29
f 10/56/29 8/54/27 9/12/30
f 12/13/32 13/15/37 11/57/31
f 11/57/31 13/15/37 14/70/39
f 16/20/45 17/71/28 15/19/46
f 15/19/46 17/71/28 18/72/26
f 19/59/40 20/23/38 22/22/48
f 22/22/48 20/23/38 21/49/47
s off
f 23/21/159 24/25/160 25/50/161
f 26/27/162 27/26/163 28/24/164
s 18
f 29/28/70 30/60/69 32/61/73
f 32/61/73 30/60/69 31/30/74
f 34/31/76 35/32/82 33/62/75
f 33/62/75 35/32/82 36/63/81
f 37/64/83 38/33/84 40/65/89
f 40/65/89 38/33/84 39/34/90
f 42/35/92 43/29/71 41/66/91
f 41/66/91 43/29/71 44/36/72
s off
f 45/67/165 46/38/166 47/46/167
f 48/47/168 49/39/169 50/40/170
f 51/48/171 52/41/172 53/42/173
f 54/44/174 55/43/175 56/37/176
g default
v -3.879502 -2.000000 1.879502
v -3.879502 -1.879502 2.000000
v -4.000000 -1.879502 1.879502
v 4.000000 -1.879502 1.879502
v 3.879502 -1.879502 2.000000
v 3.879502 -2.000000 1.879502
v -3.875012 2.000000 1.750025
v -4.000000 1.881928 1.881928
v -3.884354 1.884354 2.000000
v -3.750025 2.000000 1.875013
v 3.750025 2.000000 1.875013
v 3.881928 1.881928 2.000000
v 4.000000 1.884354 1.884354
v 3.875012 2.000000 1.750025
v -3.750025 2.000000 -1.875013
v -3.881928 1.881928 -2.000000
v -4.000000 1.884354 -1.884354
v -3.875012 2.000000 -1.750025
v 3.875012 2.000000 -1.750025
v 4.000000 1.881928 -1.881928
v 3.884354 1.884354 -2.000000
v 3.750025 2.000000 -1.875013
v -4.000000 -1.879502 -1.879502
v -3.879502 -1.879502 -2.000000
v -3.879502 -2.000000 -1.879502
v 3.879502 -2.000000 -1.879502
v 3.879502 -1.879502 -2.000000
v 4.000000 -1.879502 -1.879502
v -3.500000 1.881931 1.381931
v -3.622833 2.000000 1.500000
v -3.500000 2.000000 1.622833
v -3.381931 1.881931 1.500000
v 3.381931 1.881931 1.500000
v 3.500000 2.000000 1.622833
v 3.622833 2.000000 1.500000
v 3.500000 1.881931 1.381931
v 3.500000 1.881931 -1.381931
v 3.622833 2.000000 -1.500000
v 3.500000 2.000000 -1.622833
v 3.381931 1.881931 -1.500000
v -3.381931 1.881931 -1.500000
v -3.500000 2.000000 -1.622833
v -3.622833 2.000000 -1.500000
v -3.500000 1.881931 -1.381931
v -3.500000 0.366757 1.379502
v -3.379502 0.366757 1.500000
v -3.379502 0.246259 1.379502
v 3.379502 0.246259 1.379502
v 3.379502 0.366757 1.500000
v 3.500000 0.366757 1.379502
v 3.379502 0.246259 -1.379502
v 3.500000 0.366757 -1.379502
v 3.379502 0.366757 -1.500000
v -3.379502 0.246259 -1.379502
v -3.379502 0.366757 -1.500000
v -3.500000 0.366757 -1.379502
vt 0.378766 0.992469
vt 0.375000 0.992469
vt 0.375000 0.757531
vt 0.378766 0.000000
vt 0.378766 0.007531
vt 0.625000 0.992469
vt 0.621234 0.992469
vt 0.625000 0.757531
vt 0.632531 0.007531
vt 0.359377 0.250000
vt 0.140623 0.250000
vt 0.378614 0.242772
vt 0.621310 0.242620
vt 0.640623 0.250000
vt 0.632228 0.242772
vt 0.867621 0.242620
vt 0.859377 0.250000
vt 0.375000 0.492188
vt 0.379464 0.500000
vt 0.378690 0.507380
vt 0.375000 0.742469
vt 0.621094 0.500000
vt 0.625000 0.507380
vt 0.625000 0.742469
vt 0.378766 0.742469
vt 0.621234 0.742469
vt 0.621234 0.757531
vt 0.375000 0.259839
vt 0.375000 0.492323
vt 0.378839 0.250000
vt 0.620613 0.250000
vt 0.625000 0.257677
vt 0.625000 0.489764
vt 0.621161 0.500000
vt 0.379387 0.500000
vt 0.375000 0.490161
vt 0.375000 0.489958
vt 0.379304 0.250000
vt 0.620696 0.250000
vt 0.625000 0.260042
vt 0.625000 0.489958
vt 0.620696 0.500000
vt 0.379303 0.500000
vt 0.379304 0.489958
vt 0.621234 0.007531
vt 0.379304 0.260041
vt 0.620696 0.260041
vt 0.620696 0.489958
vt 0.621386 0.507228
vt 0.378766 0.757531
vt 0.867469 0.007531
vt 0.132531 0.007531
vt 0.367469 0.007531
vt 0.367620 0.242620
vt 0.132228 0.242772
vt 0.378906 0.250000
vt 0.620536 0.250000
vt 0.625000 0.257812
vt 0.625000 0.489584
vt 0.375000 0.260236
vt 0.379217 0.250000
vt 0.620783 0.250000
vt 0.625000 0.259839
vt 0.625000 0.490161
vt 0.620783 0.500000
vt 0.379217 0.500000
vt 0.375000 0.260042
vt 0.621234 0.000000
vt 0.375000 0.260416
vt 0.621094 0.250000
vt 0.375000 0.507228
vt 0.378906 0.500000
vn -0.707107 -0.707107 0.000000
vn -0.707107 -0.707107 0.000000
vn -0.707107 -0.707107 0.000000
vn -0.707107 -0.707107 0.000000
vn 0.000000 -0.707107 0.707107
vn 0.000000 -0.707107 0.707107
vn 0.000000 -0.707107 0.707107
vn 0.000000 -0.707107 0.707107
vn -0.707107 -0.000456 0.707106
vn -0.707266 -0.000466 0.706948
vn -0.714229 -0.000910 0.699911
vn -0.714398 -0.000921 0.699739
vn 0.707107 -0.707107 0.000000
vn 0.707107 -0.707107 0.000000
vn 0.707107 -0.707107 0.000000
vn 0.707107 -0.707107 0.000000
vn 0.707107 -0.000456 0.707107
vn 0.706950 -0.000466 0.707263
vn 0.699911 -0.000910 0.714229
vn 0.699740 -0.000921 0.714397
vn 0.000000 1.000000 -0.000000
vn 0.000000 1.000000 -0.000000
vn 0.000000 1.000000 0.000000
vn 0.000000 1.000000 0.000000
vn -0.680570 0.732602 0.010896
vn -0.673767 0.738884 -0.009394
vn -0.654848 0.753979 0.051864
vn -0.648341 0.759533 -0.052581
vn -0.011522 0.739873 0.672648
vn -0.009941 0.739012 0.673619
vn 0.010999 0.733026 0.680112
vn 0.009164 0.731710 0.681554
vn 0.000000 1.000000 -0.000000
vn 0.000000 1.000000 0.000000
vn 0.000000 1.000000 0.000000
vn 0.000000 1.000000 0.000000
vn 0.648340 0.759533 0.052581
vn 0.654848 0.753979 -0.051864
vn 0.673766 0.738885 0.009394
vn 0.680570 0.732602 -0.010896
vn 0.000000 1.000000 0.000000
vn 0.000000 1.000000 0.000000
vn 0.000000 1.000000 0.000000
vn 0.000000 1.000000 0.000000
vn -0.009164 0.731710 -0.681554
vn -0.010999 0.733026 -0.680112
vn 0.009941 0.739012 -0.673619
vn 0.011522 0.739873 -0.672648
vn -0.699739 -0.000921 -0.714398
vn -0.699911 -0.000910 -0.714230
vn -0.706950 -0.000466 -0.707263
vn -0.707107 -0.000456 -0.707107
vn 0.000000 1.000000 0.000000
vn 0.000000 1.000000 0.000000
vn 0.000000 1.000000 0.000000
vn 0.000000 1.000000 0.000000
vn 0.714398 -0.000921 -0.699739
vn 0.714229 -0.000910 -0.699911
vn 0.707266 -0.000466 -0.706948
vn 0.707107 -0.000456 -0.707106
vn 0.000000 -0.707107 -0.707107
vn 0.000000 -0.707107 -0.707107
vn 0.000000 -0.707107 -0.707107
vn 0.000000 -0.707107 -0.707107
vn 0.707107 0.001133 -0.707106
vn 0.707107 0.001133 -0.707106
vn 0.707106 0.001134 -0.707106
vn 0.707106 0.001134 -0.707106
vn 0.662083 0.747155 -0.058359
vn 0.686457 0.727056 -0.012904
vn 0.659815 0.748833 0.062393
vn 0.685917 0.727546 0.013951
vn 0.012871 0.727042 -0.686473
vn 0.010807 0.726077 -0.687529
vn -0.012459 0.726849 -0.686684
vn -0.010465 0.725916 -0.687703
vn -0.707107 0.001133 -0.707106
vn -0.707107 0.001133 -0.707106
vn -0.707106 0.001134 -0.707106
vn -0.707106 0.001134 -0.707106
vn -0.685917 0.727546 -0.013951
vn -0.659815 0.748833 -0.062393
vn -0.686457 0.727056 0.012904
vn -0.662083 0.747155 0.058359
vn -0.707107 0.001133 0.707106
vn -0.707107 0.001133 0.707106
vn -0.707106 0.001134 0.707106
vn -0.707106 0.001134 0.707106
vn -0.012871 0.727042 0.686473
vn -0.010807 0.726077 0.687529
vn 0.012459 0.726849 0.686684
vn 0.010465 0.725916 0.687703
vn 0.707107 0.001133 0.707106
vn 0.707107 0.001133 0.707106
vn 0.707106 0.001134 0.707106
vn 0.707106 0.001134 0.707106
vn 0.707105 0.707109 0.000000
vn 0.707105 0.707109 0.000000
vn 0.707107 0.707107 0.000000
vn 0.707107 0.707107 0.000000
vn 0.000000 0.707107 -0.707107
vn 0.000000 0.707107 -0.707107
vn 0.000000 0.707107 -0.707106
vn 0.000000 0.707107 -0.707106
vn -0.707107 0.707107 0.000000
vn -0.707107 0.707107 0.000000
vn -0.707105 0.707109 0.000000
vn -0.707105 0.707109 0.000000
vn 0.000000 0.707107 0.707107
vn 0.000000 0.707107 0.707107
vn 0.000000 0.707107 0.707106
vn 0.000000 0.707107 0.707106
vn 0.000000 0.000000 1.000000
vn -0.000000 0.000000 1.000000
vn -0.000000 0.000000 1.000000
vn -0.000000 0.000000 1.000000
vn 0.000000 1.000000 0.000000
vn 0.000000 1.000000 0.000000
vn 0.000000 1.000000 0.000000
vn 0.000000 1.000000 0.000000
vn 0.000000 0.000000 -1.000000
vn 0.000000 0.000000 -1.000000
vn 0.000000 0.000000 -1.000000
vn 0.000000 0.000000 -1.000000
vn 0.000000 -1.000000 0.000000
vn 0.000000 -1.000000 0.000000
vn 0.000000 -1.000000 0.000000
vn 0.000000 -1.000000 0.000000
vn 1.000000 0.000000 0.000000
vn 1.000000 0.000000 0.000000
vn 1.000000 0.000000 0.000000
vn 1.000000 0.000000 0.000000
vn -1.000000 0.000000 0.000000
vn -1.000000 0.000000 0.000000
vn -1.000000 0.000000 0.000000
vn -1.000000 0.000000 0.000000
vn 0.000000 0.000000 -1.000000
vn 0.000000 0.000000 -1.000000
vn 0.000000 0.000000 -1.000000
vn 0.000000 0.000000 -1.000000
vn -1.000000 0.000000 0.000000
vn -1.000000 -0.000000 0.000000
vn -1.000000 -0.000000 0.000000
vn -1.000000 -0.000000 0.000000
vn 0.000000 0.000000 1.000000
vn 0.000000 0.000000 1.000000
vn 0.000000 0.000000 1.000000
vn 0.000000 0.000000 1.000000
vn 1.000000 0.000000 0.000000
vn 1.000000 -0.000000 0.000000
vn 1.000000 -0.000000 0.000000
vn 1.000000 -0.000000 0.000000
vn -0.577350 -0.577350 0.577350
vn -0.577350 -0.577350 0.577350
vn -0.577350 -0.577350 0.577350
vn 0.577350 -0.577350 0.577350
vn 0.577350 -0.577350 0.577350
vn 0.577350 -0.577350 0.577350
vn -0.577350 -0.577350 -0.577350
vn -0.577350 -0.577350 -0.577350
vn -0.577350 -0.577350 -0.577350
vn 0.577350 -0.577350 -0.577350
vn 0.577350 -0.577350 -0.577350
vn 0.577350 -0.577350 -0.577350
vn 0.577350 0.577350 -0.577350
vn 0.577350 0.577350 -0.577350
vn 0.577350 0.577350 -0.577350
vn -0.577350 0.577350 -0.577350
vn -0.577350 0.577350 -0.577350
vn -0.577350 0.577350 -0.577350
vn -0.577350 0.577350 0.577350
vn -0.577350 0.577350 0.577350
vn -0.577350 0.577350 0.577350
vn 0.577350 0.577350 0.577350
vn 0.577350 0.577350 0.577350
vn 0.577350 0.577350 0.577350
s 1
g pCube1
f 57/73/177 59/74/178 81/122/179
f 81/122/179 59/74/178 79/75/180
s 2
f 58/77/181 57/76/182 61/117/183
f 61/117/183 57/76/182 62/140/184
s 3
f 59/125/185 58/77/186 64/126/187
f 64/126/187 58/77/186 65/84/188
s 4
f 60/78/189 62/79/190 84/80/191
f 84/80/191 62/79/190 82/99/192
s 5
f 61/117/193 60/81/194 68/85/195
f 68/85/195 60/81/194 69/87/196
s 6
f 66/128/197 87/102/198 63/141/199
f 63/141/199 87/102/198 86/132/200
s 7
f 63/82/201 74/83/202 64/126/203
f 64/126/203 74/83/202 73/127/204
f 66/128/205 65/84/206 67/129/207
f 67/129/207 65/84/206 68/85/208
s 6
f 67/129/209 70/130/210 90/103/211
f 90/103/211 70/130/210 91/104/212
s 7
f 69/87/213 76/88/214 70/86/215
f 70/86/215 76/88/214 75/89/216
s 6
f 71/91/217 74/90/218 98/107/219
f 98/107/219 74/90/218 99/101/220
s 7
f 72/92/221 71/91/222 77/121/223
f 77/121/223 71/91/222 78/94/224
s 13
f 73/143/225 72/92/226 79/93/227
f 79/93/227 72/92/226 80/97/228
s 6
f 78/94/229 95/106/230 75/131/231
f 75/131/231 95/106/230 94/105/232
s 15
f 77/121/233 76/95/234 83/98/235
f 83/98/235 76/95/234 84/96/236
s 16
f 81/122/237 80/97/238 82/99/239
f 82/99/239 80/97/238 83/98/240
s 17
f 85/100/241 88/133/242 101/139/243
f 101/139/243 88/133/242 102/110/244
s 18
f 86/132/245 85/100/246 99/101/247
f 99/101/247 85/100/246 100/108/248
f 88/133/249 87/102/250 89/134/251
f 89/134/251 87/102/250 90/103/252
s 20
f 89/134/253 92/135/254 105/111/255
f 105/111/255 92/135/254 106/112/256
s 18
f 92/135/257 91/104/258 93/136/259
f 93/136/259 91/104/258 94/105/260
s 22
f 93/136/261 96/137/262 108/113/263
f 108/113/263 96/137/262 109/114/264
s 18
f 96/137/265 95/106/266 97/138/267
f 97/138/267 95/106/266 98/107/268
s 24
f 97/138/269 100/108/270 111/115/271
f 111/115/271 100/108/270 112/109/272
s 25
f 101/139/273 103/118/274 112/109/275
f 112/109/275 103/118/274 110/116/276
s 26
f 103/118/277 102/110/278 104/119/279
f 104/119/279 102/110/278 105/111/280
s 27
f 104/119/281 106/112/282 107/120/283
f 107/120/283 106/112/282 108/113/284
s 28
f 107/120/285 109/114/286 110/116/287
f 110/116/287 109/114/286 111/115/288
s 29
f 58/77/289 61/117/290 65/84/291
f 65/84/291 61/117/290 68/85/292
s 30
f 103/118/293 104/119/294 110/116/295
f 110/116/295 104/119/294 107/120/296
s 31
f 72/92/297 77/121/298 80/97/299
f 80/97/299 77/121/298 83/98/300
s 32
f 81/122/301 82/99/302 57/73/303
f 57/73/303 82/99/302 62/79/304
s 33
f 84/123/305 76/88/306 60/81/307
f 60/81/307 76/88/306 69/87/308
s 34
f 59/125/309 64/126/310 79/124/311
f 79/124/311 64/126/310 73/127/312
s 6
f 66/128/197 67/129/209 87/102/198
f 87/102/198 67/129/209 90/103/211
f 70/130/210 75/131/231 91/104/212
f 91/104/212 75/131/231 94/105/232
f 78/94/229 71/91/217 95/106/230
f 95/106/230 71/91/217 98/107/219
f 74/90/218 63/141/199 99/101/220
f 99/101/220 63/141/199 86/132/200
s 35
f 88/133/313 89/134/314 102/110/315
f 102/110/315 89/134/314 105/111/316
s 36
f 92/135/317 93/136/318 106/112/319
f 106/112/319 93/136/318 108/113/320
s 37
f 96/137/321 97/138/322 109/114/323
f 109/114/323 97/138/322 111/115/324
s 38
f 100/108/325 85/100/326 112/109/327
f 112/109/327 85/100/326 101/139/328
s off
f 57/76/329 58/77/330 59/125/331
f 60/81/332 61/117/333 62/140/334
s 7
f 63/141/201 64/126/203 66/128/205
f 66/128/205 64/126/203 65/84/206
f 68/85/208 69/87/213 67/129/207
f 67/129/207 69/87/213 70/142/215
f 72/92/221 73/143/204 71/91/222
f 71/91/222 73/143/204 74/144/202
f 75/131/216 76/95/214 78/94/224
f 78/94/224 76/95/214 77/121/223
s off
f 79/93/335 80/97/336 81/122/337
f 82/99/338 83/98/339 84/96/340
s 18
f 85/100/246 86/132/245 88/133/249
f 88/133/249 86/132/245 87/102/250
f 90/103/252 91/104/258 89/134/251
f 89/134/251 91/104/258 92/135/257
f 93/136/259 94/105/260 96/137/265
f 96/137/265 94/105/260 95/106/266
f 98/107/268 99/101/247 97/138/267
f 97/138/267 99/101/247 100/108/248
s off
f 101/139/341 102/110/342 103/118/343
f 104/119/344 105/111/345 106/112/346
f 107/120/347 108/113/348 109/114/349
f 110/116/350 111/115/351 112/109/352
